REM DIRINDEX 1\2\4,1\2\5,1\2\6,1\3\7,1\3\8,1\3\9,1\3\10
REM DIRNAME cjc058,folder01,folder02,folder03,folder04,folder05,folder06,folder07,folder08,folder09
TITLE ""
FILE "b_40.mp3" MP3
  TRACK 01 AUDIO
    TITLE "0:"
    INDEX 01 00:00:00
  TRACK 02 AUDIO
    TITLE "10:cjc058_3544"
    INDEX 01 00:00:15
  TRACK 03 AUDIO
    TITLE "0:"
    INDEX 01 00:03:15
  TRACK 04 AUDIO
    TITLE "7:cjc058_3545"
    INDEX 01 00:03:63
  TRACK 05 AUDIO
    TITLE "0:"
    INDEX 01 00:07:33
  TRACK 06 AUDIO
    TITLE "8:cjc058_3546"
    INDEX 01 00:07:66
  TRACK 07 AUDIO
    TITLE "0:"
    INDEX 01 00:10:06
  TRACK 08 AUDIO
    TITLE "9:cjc058_3547"
    INDEX 01 00:10:51
  TRACK 09 AUDIO
    TITLE "0:"
    INDEX 01 00:13:69
  TRACK 10 AUDIO
    TITLE "7:cjc058_3548"
    INDEX 01 00:15:01
  TRACK 11 AUDIO
    TITLE "0:"
    INDEX 01 00:16:30
  TRACK 12 AUDIO
    TITLE "8:cjc058_3549"
    INDEX 01 00:16:61
  TRACK 13 AUDIO
    TITLE "0:"
    INDEX 01 00:18:66
  TRACK 14 AUDIO
    TITLE "9:cjc058_3550"
    INDEX 01 00:19:38
  TRACK 15 AUDIO
    TITLE "0:"
    INDEX 01 00:22:21
  TRACK 16 AUDIO
    TITLE "7:cjc058_3551"
    INDEX 01 00:23:32
  TRACK 17 AUDIO
    TITLE "0:"
    INDEX 01 00:24:65
  TRACK 18 AUDIO
    TITLE "8:cjc058_3552"
    INDEX 01 00:25:25
  TRACK 19 AUDIO
    TITLE "0:"
    INDEX 01 00:27:04
  TRACK 20 AUDIO
    TITLE "9:cjc058_3553"
    INDEX 01 00:27:45
  TRACK 21 AUDIO
    TITLE "0:"
    INDEX 01 00:33:21
  TRACK 22 AUDIO
    TITLE "7:cjc058_3554"
    INDEX 01 00:34:28
  TRACK 23 AUDIO
    TITLE "0:"
    INDEX 01 00:36:07
  TRACK 24 AUDIO
    TITLE "8:cjc058_3555"
    INDEX 01 00:36:38
  TRACK 25 AUDIO
    TITLE "0:"
    INDEX 01 00:38:69
  TRACK 26 AUDIO
    TITLE "9:cjc058_3556"
    INDEX 01 00:39:39
  TRACK 27 AUDIO
    TITLE "0:"
    INDEX 01 00:42:27
  TRACK 28 AUDIO
    TITLE "7:cjc058_3557"
    INDEX 01 00:43:33
  TRACK 29 AUDIO
    TITLE "0:"
    INDEX 01 00:44:60
  TRACK 30 AUDIO
    TITLE "8:cjc058_3558"
    INDEX 01 00:45:18
  TRACK 31 AUDIO
    TITLE "0:"
    INDEX 01 00:47:28
  TRACK 32 AUDIO
    TITLE "9:cjc058_3559"
    INDEX 01 00:48:00
  TRACK 33 AUDIO
    TITLE "0:"
    INDEX 01 00:53:41
  TRACK 34 AUDIO
    TITLE "7:cjc058_3560"
    INDEX 01 00:54:50
  TRACK 35 AUDIO
    TITLE "0:"
    INDEX 01 00:56:12
  TRACK 36 AUDIO
    TITLE "8:cjc058_3561"
    INDEX 01 00:56:45
  TRACK 37 AUDIO
    TITLE "0:"
    INDEX 01 00:58:60
  TRACK 38 AUDIO
    TITLE "9:cjc058_3562"
    INDEX 01 00:59:30
  TRACK 39 AUDIO
    TITLE "0:"
    INDEX 01 01:02:71
  TRACK 40 AUDIO
    TITLE "7:cjc058_3563"
    INDEX 01 01:04:01
  TRACK 41 AUDIO
    TITLE "0:"
    INDEX 01 01:05:30
  TRACK 42 AUDIO
    TITLE "8:cjc058_3564"
    INDEX 01 01:05:64
  TRACK 43 AUDIO
    TITLE "0:"
    INDEX 01 01:07:12
  TRACK 44 AUDIO
    TITLE "9:cjc058_3565"
    INDEX 01 01:07:57
  TRACK 45 AUDIO
    TITLE "0:"
    INDEX 01 01:13:00
  TRACK 46 AUDIO
    TITLE "7:cjc058_3566"
    INDEX 01 01:14:06
  TRACK 47 AUDIO
    TITLE "0:"
    INDEX 01 01:15:27
  TRACK 48 AUDIO
    TITLE "8:cjc058_3567"
    INDEX 01 01:15:60
  TRACK 49 AUDIO
    TITLE "0:"
    INDEX 01 01:17:02
  TRACK 50 AUDIO
    TITLE "9:cjc058_3568"
    INDEX 01 01:17:47
  TRACK 51 AUDIO
    TITLE "0:"
    INDEX 01 01:21:51
  TRACK 52 AUDIO
    TITLE "7:cjc058_3569"
    INDEX 01 01:22:62
  TRACK 53 AUDIO
    TITLE "0:"
    INDEX 01 01:24:12
  TRACK 54 AUDIO
    TITLE "8:cjc058_3570"
    INDEX 01 01:24:45
  TRACK 55 AUDIO
    TITLE "0:"
    INDEX 01 01:26:46
  TRACK 56 AUDIO
    TITLE "9:cjc058_3571"
    INDEX 01 01:27:12
  TRACK 57 AUDIO
    TITLE "0:"
    INDEX 01 01:31:04
  TRACK 58 AUDIO
    TITLE "7:cjc058_3572"
    INDEX 01 01:32:06
  TRACK 59 AUDIO
    TITLE "0:"
    INDEX 01 01:33:54
  TRACK 60 AUDIO
    TITLE "8:cjc058_3573"
    INDEX 01 01:34:14
  TRACK 61 AUDIO
    TITLE "0:"
    INDEX 01 01:36:39
  TRACK 62 AUDIO
    TITLE "9:cjc058_3574"
    INDEX 01 01:37:11
  TRACK 63 AUDIO
    TITLE "0:"
    INDEX 01 01:42:20
  TRACK 64 AUDIO
    TITLE "7:cjc058_3575"
    INDEX 01 01:43:31
  TRACK 65 AUDIO
    TITLE "0:"
    INDEX 01 01:44:70
  TRACK 66 AUDIO
    TITLE "8:cjc058_3576"
    INDEX 01 01:45:28
  TRACK 67 AUDIO
    TITLE "0:"
    INDEX 01 01:47:66
  TRACK 68 AUDIO
    TITLE "9:cjc058_3577"
    INDEX 01 01:48:36
  TRACK 69 AUDIO
    TITLE "0:"
    INDEX 01 01:51:60
  TRACK 70 AUDIO
    TITLE "7:cjc058_3578"
    INDEX 01 01:52:67
  TRACK 71 AUDIO
    TITLE "0:"
    INDEX 01 01:54:11
  TRACK 72 AUDIO
    TITLE "8:cjc058_3579"
    INDEX 01 01:54:46
  TRACK 73 AUDIO
    TITLE "0:"
    INDEX 01 01:56:06
  TRACK 74 AUDIO
    TITLE "9:cjc058_3580"
    INDEX 01 01:56:53
  TRACK 75 AUDIO
    TITLE "0:"
    INDEX 01 01:59:69
  TRACK 76 AUDIO
    TITLE "7:cjc058_3581"
    INDEX 01 02:01:01
  TRACK 77 AUDIO
    TITLE "0:"
    INDEX 01 02:02:24
  TRACK 78 AUDIO
    TITLE "8:cjc058_3582"
    INDEX 01 02:02:60
  TRACK 79 AUDIO
    TITLE "0:"
    INDEX 01 02:04:00
  TRACK 80 AUDIO
    TITLE "9:cjc058_3583"
    INDEX 01 02:04:47
  TRACK 81 AUDIO
    TITLE "0:"
    INDEX 01 02:07:06
  TRACK 82 AUDIO
    TITLE "7:cjc058_3584"
    INDEX 01 02:08:13
  TRACK 83 AUDIO
    TITLE "0:"
    INDEX 01 02:09:44
  TRACK 84 AUDIO
    TITLE "8:cjc058_3585"
    INDEX 01 02:10:02
  TRACK 85 AUDIO
    TITLE "0:"
    INDEX 01 02:12:44
  TRACK 86 AUDIO
    TITLE "9:cjc058_3586"
    INDEX 01 02:13:10
  TRACK 87 AUDIO
    TITLE "0:"
    INDEX 01 02:18:74
  TRACK 88 AUDIO
    TITLE "7:cjc058_3587"
    INDEX 01 02:20:07
  TRACK 89 AUDIO
    TITLE "0:"
    INDEX 01 02:21:71
  TRACK 90 AUDIO
    TITLE "8:cjc058_3588"
    INDEX 01 02:22:31
  TRACK 91 AUDIO
    TITLE "0:"
    INDEX 01 02:23:48
  TRACK 92 AUDIO
    TITLE "9:cjc058_3589"
    INDEX 01 02:24:20
  TRACK 93 AUDIO
    TITLE "0:"
    INDEX 01 02:28:06
  TRACK 94 AUDIO
    TITLE "7:cjc058_3590"
    INDEX 01 02:29:13
  TRACK 95 AUDIO
    TITLE "0:"
    INDEX 01 02:30:44
  TRACK 96 AUDIO
    TITLE "8:cjc058_3591"
    INDEX 01 02:31:04
  TRACK 97 AUDIO
    TITLE "0:"
    INDEX 01 02:32:51
  TRACK 98 AUDIO
    TITLE "9:cjc058_3592"
    INDEX 01 02:33:21
  TRACK 99 AUDIO
    TITLE "0:"
    INDEX 01 02:39:02
  TRACK 100 AUDIO
    TITLE "7:cjc058_3593"
    INDEX 01 02:40:13
  TRACK 101 AUDIO
    TITLE "0:"
    INDEX 01 02:41:48
  TRACK 102 AUDIO
    TITLE "8:cjc058_3594"
    INDEX 01 02:42:08
  TRACK 103 AUDIO
    TITLE "0:"
    INDEX 01 02:43:29
  TRACK 104 AUDIO
    TITLE "9:cjc058_3595"
    INDEX 01 02:43:74
  TRACK 105 AUDIO
    TITLE "0:"
    INDEX 01 02:48:30
  TRACK 106 AUDIO
    TITLE "7:cjc058_3596"
    INDEX 01 02:49:40
  TRACK 107 AUDIO
    TITLE "0:"
    INDEX 01 02:50:74
  TRACK 108 AUDIO
    TITLE "8:cjc058_3597"
    INDEX 01 02:51:33
  TRACK 109 AUDIO
    TITLE "0:"
    INDEX 01 02:52:56
  TRACK 110 AUDIO
    TITLE "9:cjc058_3598"
    INDEX 01 02:53:24
  TRACK 111 AUDIO
    TITLE "0:"
    INDEX 01 02:58:15
  TRACK 112 AUDIO
    TITLE "7:cjc058_3599"
    INDEX 01 02:59:20
  TRACK 113 AUDIO
    TITLE "0:"
    INDEX 01 03:00:65
  TRACK 114 AUDIO
    TITLE "8:cjc058_3600"
    INDEX 01 03:01:23
  TRACK 115 AUDIO
    TITLE "0:"
    INDEX 01 03:02:48
  TRACK 116 AUDIO
    TITLE "9:cjc058_3601"
    INDEX 01 03:03:20
  TRACK 117 AUDIO
    TITLE "0:"
    INDEX 01 03:08:10
  TRACK 118 AUDIO
    TITLE "7:cjc058_3602"
    INDEX 01 03:09:19
  TRACK 119 AUDIO
    TITLE "0:"
    INDEX 01 03:11:31
  TRACK 120 AUDIO
    TITLE "8:cjc058_3603"
    INDEX 01 03:11:65
  TRACK 121 AUDIO
    TITLE "0:"
    INDEX 01 03:13:42
  TRACK 122 AUDIO
    TITLE "9:cjc058_3604"
    INDEX 01 03:14:14
  TRACK 123 AUDIO
    TITLE "0:"
    INDEX 01 03:17:20
  TRACK 124 AUDIO
    TITLE "7:cjc058_3605"
    INDEX 01 03:18:30
  TRACK 125 AUDIO
    TITLE "0:"
    INDEX 01 03:20:56
  TRACK 126 AUDIO
    TITLE "8:cjc058_3606"
    INDEX 01 03:21:16
  TRACK 127 AUDIO
    TITLE "0:"
    INDEX 01 03:23:23
  TRACK 128 AUDIO
    TITLE "9:cjc058_3607"
    INDEX 01 03:23:68
  TRACK 129 AUDIO
    TITLE "0:"
    INDEX 01 03:31:09
  TRACK 130 AUDIO
    TITLE "7:cjc058_3608"
    INDEX 01 03:32:18
  TRACK 131 AUDIO
    TITLE "0:"
    INDEX 01 03:33:72
  TRACK 132 AUDIO
    TITLE "8:cjc058_3609"
    INDEX 01 03:34:32
  TRACK 133 AUDIO
    TITLE "0:"
    INDEX 01 03:35:63
  TRACK 134 AUDIO
    TITLE "9:cjc058_3610"
    INDEX 01 03:36:35
  TRACK 135 AUDIO
    TITLE "0:"
    INDEX 01 03:41:21
  TRACK 136 AUDIO
    TITLE "7:cjc058_3611"
    INDEX 01 03:42:28
  TRACK 137 AUDIO
    TITLE "0:"
    INDEX 01 03:43:45
  TRACK 138 AUDIO
    TITLE "8:cjc058_3612"
    INDEX 01 03:44:05
  TRACK 139 AUDIO
    TITLE "0:"
    INDEX 01 03:46:40
  TRACK 140 AUDIO
    TITLE "9:cjc058_3613"
    INDEX 01 03:47:08
  TRACK 141 AUDIO
    TITLE "0:"
    INDEX 01 03:53:24
  TRACK 142 AUDIO
    TITLE "7:cjc058_3614"
    INDEX 01 03:54:31
  TRACK 143 AUDIO
    TITLE "0:"
    INDEX 01 03:56:03
  TRACK 144 AUDIO
    TITLE "8:cjc058_3615"
    INDEX 01 03:56:36
  TRACK 145 AUDIO
    TITLE "0:"
    INDEX 01 04:00:12
  TRACK 146 AUDIO
    TITLE "9:cjc058_3616"
    INDEX 01 04:00:59
  TRACK 147 AUDIO
    TITLE "0:"
    INDEX 01 04:03:32
  TRACK 148 AUDIO
    TITLE "7:cjc058_3617"
    INDEX 01 04:04:41
  TRACK 149 AUDIO
    TITLE "0:"
    INDEX 01 04:05:72
  TRACK 150 AUDIO
    TITLE "8:cjc058_3618"
    INDEX 01 04:06:32
  TRACK 151 AUDIO
    TITLE "0:"
    INDEX 01 04:08:41
  TRACK 152 AUDIO
    TITLE "9:cjc058_3619"
    INDEX 01 04:09:15
  TRACK 153 AUDIO
    TITLE "0:"
    INDEX 01 04:11:71
  TRACK 154 AUDIO
    TITLE "7:cjc058_3620"
    INDEX 01 04:13:05
  TRACK 155 AUDIO
    TITLE "0:"
    INDEX 01 04:14:32
  TRACK 156 AUDIO
    TITLE "8:cjc058_3621"
    INDEX 01 04:14:67
  TRACK 157 AUDIO
    TITLE "0:"
    INDEX 01 04:16:74
  TRACK 158 AUDIO
    TITLE "9:cjc058_3622"
    INDEX 01 04:17:44
  TRACK 159 AUDIO
    TITLE "0:"
    INDEX 01 04:19:70
  TRACK 160 AUDIO
    TITLE "7:cjc058_3623"
    INDEX 01 04:21:03
  TRACK 161 AUDIO
    TITLE "0:"
    INDEX 01 04:22:51
  TRACK 162 AUDIO
    TITLE "8:cjc058_3624"
    INDEX 01 04:23:11
  TRACK 163 AUDIO
    TITLE "0:"
    INDEX 01 04:25:65
  TRACK 164 AUDIO
    TITLE "9:cjc058_3625"
    INDEX 01 04:26:33
  TRACK 165 AUDIO
    TITLE "0:"
    INDEX 01 04:29:06
  TRACK 166 AUDIO
    TITLE "7:cjc058_3626"
    INDEX 01 04:30:15
  TRACK 167 AUDIO
    TITLE "0:"
    INDEX 01 04:31:44
  TRACK 168 AUDIO
    TITLE "8:cjc058_3627"
    INDEX 01 04:32:04
  TRACK 169 AUDIO
    TITLE "0:"
    INDEX 01 04:33:39
  TRACK 170 AUDIO
    TITLE "9:cjc058_3628"
    INDEX 01 04:34:07
  TRACK 171 AUDIO
    TITLE "0:"
    INDEX 01 04:39:03
  TRACK 172 AUDIO
    TITLE "7:cjc058_3629"
    INDEX 01 04:40:10
  TRACK 173 AUDIO
    TITLE "0:"
    INDEX 01 04:41:56
  TRACK 174 AUDIO
    TITLE "8:cjc058_3630"
    INDEX 01 04:42:15
  TRACK 175 AUDIO
    TITLE "0:"
    INDEX 01 04:44:51
  TRACK 176 AUDIO
    TITLE "9:cjc058_3631"
    INDEX 01 04:45:21
  TRACK 177 AUDIO
    TITLE "0:"
    INDEX 01 04:50:63
  TRACK 178 AUDIO
    TITLE "7:cjc058_3632"
    INDEX 01 04:51:74
  TRACK 179 AUDIO
    TITLE "0:"
    INDEX 01 04:53:48
  TRACK 180 AUDIO
    TITLE "8:cjc058_3633"
    INDEX 01 04:54:02
  TRACK 181 AUDIO
    TITLE "0:"
    INDEX 01 04:55:66
  TRACK 182 AUDIO
    TITLE "9:cjc058_3634"
    INDEX 01 04:56:34
  TRACK 183 AUDIO
    TITLE "0:"
    INDEX 01 05:01:32
  TRACK 184 AUDIO
    TITLE "7:cjc058_3635"
    INDEX 01 05:02:39
  TRACK 185 AUDIO
    TITLE "0:"
    INDEX 01 05:03:68
  TRACK 186 AUDIO
    TITLE "8:cjc058_3636"
    INDEX 01 05:04:26
  TRACK 187 AUDIO
    TITLE "0:"
    INDEX 01 05:05:47
  TRACK 188 AUDIO
    TITLE "9:cjc058_3637"
    INDEX 01 05:06:19
  TRACK 189 AUDIO
    TITLE "0:"
    INDEX 01 05:09:39
  TRACK 190 AUDIO
    TITLE "7:cjc058_3638"
    INDEX 01 05:10:44
  TRACK 191 AUDIO
    TITLE "0:"
    INDEX 01 05:12:08
  TRACK 192 AUDIO
    TITLE "8:cjc058_3639"
    INDEX 01 05:12:41
  TRACK 193 AUDIO
    TITLE "0:"
    INDEX 01 05:13:68
  TRACK 194 AUDIO
    TITLE "9:cjc058_3640"
    INDEX 01 05:14:40
  TRACK 195 AUDIO
    TITLE "0:"
    INDEX 01 05:19:12
